STARTFONT 2.1
FONT -sun-timmons-bold-r-normal--17-170-75-75-p-98-adobe-fontspecific
SIZE 17 75 75
FONTBOUNDINGBOX 19 21 -3 -4

STARTPROPERTIES 28
FOUNDRY "sun"
FAMILY_NAME "timmons"
WEIGHT_NAME "bold"
SLANT "r"
SETWIDTH_NAME "normal"
ADD_STYLE_NAME ""
PIXEL_SIZE 18
POINT_SIZE 170
RESOLUTION_X 75
RESOLUTION_Y 75
SPACING "p"
AVERAGE_WIDTH 98
CHARSET_REGISTRY "adobe"
CHARSET_ENCODING "fontspecific"
COPYRIGHT "© 1999 Sun Microsystems, Inc."
RAW_PIXELSIZE 1000
RAW_POINTSIZE 964
RAW_ASCENT 950
RAW_DESCENT 196
RAW_AVERAGE_WIDTH 5542
FACE_NAME "TimmonsBoldmonsB5"
_XMBDFED_INFO "Edited with xmbdfed 2.4."
WEIGHT 10
X_HEIGHT -1
QUAD_WIDTH 9
DEFAULT_CHAR 4
FONT_DESCENT 4
FONT_ASCENT 17
ENDPROPERTIES

CHARS 214

STARTCHAR char32
ENCODING 32
SWIDTH 25 0
DWIDTH 5 0
BBX 0 0 0 0
BITMAP
ENDCHAR

STARTCHAR char33
ENCODING 33
SWIDTH 25 0
DWIDTH 5 0
BBX 3 13 1 0
BITMAP
20
60
60
60
60
20
20
20
20
00
60
60
60
ENDCHAR

STARTCHAR char34
ENCODING 34
SWIDTH 45 0
DWIDTH 9 0
BBX 6 6 1 7
BITMAP
CC
CC
CC
44
4C
88
ENDCHAR

STARTCHAR char35
ENCODING 35
SWIDTH 50 0
DWIDTH 10 0
BBX 9 13 0 0
BITMAP
1100
1300
1300
1200
7F80
3200
3200
2200
FF00
2600
2400
2400
6400
ENDCHAR

STARTCHAR char36
ENCODING 36
SWIDTH 4 0
DWIDTH 11 0
BBX 9 17 1 -2
BITMAP
1800
1800
3E00
4B00
C900
D900
D800
FC00
7F00
3F00
1F80
9B80
9980
DB00
7E00
1800
1800
ENDCHAR

STARTCHAR char37
ENCODING 37
SWIDTH 19 0
DWIDTH 14 0
BBX 13 13 0 0
BITMAP
6180
D100
D900
DB00
DA00
DA70
DE98
5598
6C98
0C98
0998
1998
10F0
ENDCHAR

STARTCHAR char38
ENCODING 38
SWIDTH 14 0
DWIDTH 13 0
BBX 12 13 0 0
BITMAP
0700
0B80
1980
1980
1B00
1C70
1E60
6E40
C740
C380
E380
FFF0
3CE0
ENDCHAR

STARTCHAR char39
ENCODING 39
SWIDTH 20 0
DWIDTH 4 0
BBX 2 6 1 7
BITMAP
40
40
80
C0
C0
C0
ENDCHAR

STARTCHAR char40
ENCODING 40
SWIDTH 35 0
DWIDTH 7 0
BBX 5 16 1 -3
BITMAP
08
10
20
60
40
C0
C0
C0
C0
C0
C0
40
60
20
10
08
ENDCHAR

STARTCHAR char41
ENCODING 41
SWIDTH 35 0
DWIDTH 7 0
BBX 5 15 0 -2
BITMAP
80
60
20
30
10
18
18
18
18
18
18
10
30
20
40
ENDCHAR

STARTCHAR char42
ENCODING 42
SWIDTH 45 0
DWIDTH 9 0
BBX 6 7 1 6
BITMAP
30
30
F4
FC
78
58
48
ENDCHAR

STARTCHAR char43
ENCODING 43
SWIDTH 9 0
DWIDTH 12 0
BBX 11 10 0 0
BITMAP
0600
0600
0600
0600
FFE0
0600
0600
0600
0600
0600
ENDCHAR

STARTCHAR char44
ENCODING 44
SWIDTH 25 0
DWIDTH 5 0
BBX 2 6 1 -3
BITMAP
C0
C0
C0
40
40
40
ENDCHAR

STARTCHAR char45
ENCODING 45
SWIDTH 35 0
DWIDTH 7 0
BBX 6 2 0 4
BITMAP
FC
FC
ENDCHAR

STARTCHAR char46
ENCODING 46
SWIDTH 25 0
DWIDTH 5 0
BBX 2 3 1 0
BITMAP
C0
C0
C0
ENDCHAR

STARTCHAR char47
ENCODING 47
SWIDTH 40 0
DWIDTH 8 0
BBX 7 13 0 0
BITMAP
06
04
0C
0C
18
18
10
30
30
20
60
60
C0
ENDCHAR

STARTCHAR char48
ENCODING 48
SWIDTH 45 0
DWIDTH 9 0
BBX 7 13 0 0
BITMAP
18
24
64
E6
E6
C6
C6
C6
C6
E6
64
64
38
ENDCHAR

STARTCHAR char49
ENCODING 49
SWIDTH 45 0
DWIDTH 9 0
BBX 6 13 1 0
BITMAP
10
70
F0
30
30
30
30
30
30
30
30
30
FC
ENDCHAR

STARTCHAR char50
ENCODING 50
SWIDTH 45 0
DWIDTH 9 0
BBX 8 13 0 0
BITMAP
3C
7E
8E
86
06
04
0C
08
10
30
21
7E
FE
ENDCHAR

STARTCHAR char51
ENCODING 51
SWIDTH 45 0
DWIDTH 9 0
BBX 7 13 0 0
BITMAP
38
7C
8C
0C
0C
0C
3C
0E
06
06
06
EC
F0
ENDCHAR

STARTCHAR char52
ENCODING 52
SWIDTH 45 0
DWIDTH 9 0
BBX 8 13 0 0
BITMAP
04
0C
0C
1C
2C
2C
4C
4C
FC
FF
0C
0C
0C
ENDCHAR

STARTCHAR char53
ENCODING 53
SWIDTH 45 0
DWIDTH 9 0
BBX 8 13 0 0
BITMAP
3F
3F
40
40
70
7C
FE
0F
03
03
02
E4
F8
ENDCHAR

STARTCHAR char54
ENCODING 54
SWIDTH 45 0
DWIDTH 9 0
BBX 7 13 1 0
BITMAP
06
18
30
60
40
F8
CC
C6
C6
C6
C6
4C
38
ENDCHAR

STARTCHAR char55
ENCODING 55
SWIDTH 45 0
DWIDTH 9 0
BBX 8 13 0 0
BITMAP
40
7F
FE
86
06
04
04
0C
08
08
18
18
10
ENDCHAR

STARTCHAR char56
ENCODING 56
SWIDTH 45 0
DWIDTH 9 0
BBX 8 13 0 0
BITMAP
38
64
C6
E6
F6
7C
3C
7E
C7
C7
C7
E6
7C
ENDCHAR

STARTCHAR char57
ENCODING 57
SWIDTH 45 0
DWIDTH 9 0
BBX 8 13 0 0
BITMAP
38
66
46
C3
C3
E3
E7
7F
06
0E
0C
18
E0
ENDCHAR

STARTCHAR char58
ENCODING 58
SWIDTH 25 0
DWIDTH 5 0
BBX 2 8 2 0
BITMAP
C0
C0
C0
00
00
C0
C0
C0
ENDCHAR

STARTCHAR char59
ENCODING 59
SWIDTH 25 0
DWIDTH 5 0
BBX 4 11 1 -3
BITMAP
60
60
60
00
00
60
E0
60
20
20
40
ENDCHAR

STARTCHAR char60
ENCODING 60
SWIDTH 4 0
DWIDTH 11 0
BBX 9 9 0 0
BITMAP
0080
0380
0C00
7000
C000
7000
0C00
0300
0080
ENDCHAR

STARTCHAR char61
ENCODING 61
SWIDTH 9 0
DWIDTH 12 0
BBX 12 4 0 3
BITMAP
FFF0
0000
0000
FFF0
ENDCHAR

STARTCHAR char62
ENCODING 62
SWIDTH 4 0
DWIDTH 11 0
BBX 9 9 0 0
BITMAP
C000
7000
0C00
0300
0080
0380
0C00
7000
C000
ENDCHAR

STARTCHAR char63
ENCODING 63
SWIDTH 45 0
DWIDTH 9 0
BBX 6 13 1 0
BITMAP
78
D8
CC
CC
0C
18
10
20
30
00
20
30
20
ENDCHAR

STARTCHAR char64
ENCODING 64
SWIDTH 44 0
DWIDTH 19 0
BBX 14 13 2 0
BITMAP
07C0
1860
3018
67A8
6CCC
D84C
D84C
D8C8
D990
6EE0
3018
1830
0FC0
ENDCHAR

STARTCHAR char65
ENCODING 65
SWIDTH 9 0
DWIDTH 12 0
BBX 11 13 0 0
BITMAP
0400
0400
0E00
0E00
1E00
1700
3700
2380
3F80
4380
41C0
41C0
E3E0
ENDCHAR

STARTCHAR char66
ENCODING 66
SWIDTH 9 0
DWIDTH 12 0
BBX 11 13 0 0
BITMAP
FF00
7180
30C0
30C0
30C0
3180
3F00
31C0
30C0
30E0
30C0
31C0
FF80
ENDCHAR

STARTCHAR char67
ENCODING 67
SWIDTH 9 0
DWIDTH 12 0
BBX 10 13 1 0
BITMAP
0F40
31C0
6040
6040
C000
C000
C000
C000
C000
E000
6040
3180
1E00
ENDCHAR

STARTCHAR char68
ENCODING 68
SWIDTH 19 0
DWIDTH 14 0
BBX 12 13 0 0
BITMAP
FF00
7180
30C0
3060
3070
3030
3030
3030
3030
3070
30E0
30C0
FF00
ENDCHAR

STARTCHAR char69
ENCODING 69
SWIDTH 9 0
DWIDTH 12 0
BBX 10 13 0 0
BITMAP
FF80
3080
3080
3080
3200
3200
3E00
3200
3100
3140
3040
30C0
FFC0
ENDCHAR

STARTCHAR char70
ENCODING 70
SWIDTH 50 0
DWIDTH 10 0
BBX 9 13 0 0
BITMAP
FF80
7080
3080
3080
3200
3200
3E00
3200
3100
3100
3000
3000
FC00
ENDCHAR

STARTCHAR char71
ENCODING 71
SWIDTH 14 0
DWIDTH 13 0
BBX 11 13 1 0
BITMAP
0F40
30C0
2040
6040
C000
C000
C000
C3E0
C0C0
C0C0
60C0
20C0
1F80
ENDCHAR

STARTCHAR char72
ENCODING 72
SWIDTH 19 0
DWIDTH 14 0
BBX 13 13 0 0
BITMAP
FDF8
3070
3060
3060
3060
3060
3FE0
3060
3060
3060
3060
3060
FDF8
ENDCHAR

STARTCHAR char73
ENCODING 73
SWIDTH 35 0
DWIDTH 7 0
BBX 6 13 0 0
BITMAP
FC
30
30
30
30
30
30
30
30
30
30
30
FC
ENDCHAR

STARTCHAR char74
ENCODING 74
SWIDTH 45 0
DWIDTH 9 0
BBX 8 13 0 0
BITMAP
1F
0E
06
06
06
06
06
06
06
86
C6
C4
78
ENDCHAR

STARTCHAR char75
ENCODING 75
SWIDTH 9 0
DWIDTH 12 0
BBX 11 13 0 0
BITMAP
FBE0
7180
3100
3200
3200
3E00
3E00
3700
3300
3380
3180
31C0
FBE0
ENDCHAR

STARTCHAR char76
ENCODING 76
SWIDTH 9 0
DWIDTH 12 0
BBX 11 13 0 0
BITMAP
FC00
7000
3000
3000
3000
3000
3000
3000
3020
3020
3040
30C0
FFC0
ENDCHAR

STARTCHAR char77
ENCODING 77
SWIDTH 34 0
DWIDTH 17 0
BBX 15 13 0 0
BITMAP
F81E
783C
783C
6C3C
6C4C
6C4C
664C
668C
678C
670C
630C
620C
E23E
ENDCHAR

STARTCHAR char78
ENCODING 78
SWIDTH 14 0
DWIDTH 13 0
BBX 12 13 0 0
BITMAP
F070
7820
7830
7C30
6E30
6F30
67B0
63B0
61F0
60F0
60F0
6070
F030
ENDCHAR

STARTCHAR char79
ENCODING 79
SWIDTH 24 0
DWIDTH 15 0
BBX 11 13 1 0
BITMAP
0F00
3180
60C0
6040
C060
C060
C060
C060
C060
6040
60C0
3180
1F00
ENDCHAR

STARTCHAR char80
ENCODING 80
SWIDTH 4 0
DWIDTH 11 0
BBX 10 13 0 0
BITMAP
FF00
3180
30C0
30C0
30C0
31C0
3F00
3000
3000
3000
3000
3000
FC00
ENDCHAR

STARTCHAR char81
ENCODING 81
SWIDTH 24 0
DWIDTH 15 0
BBX 11 16 1 -3
BITMAP
0F00
3180
60C0
60C0
C060
C060
C060
C060
C060
6060
60C0
3080
1F00
0E00
0700
03C0
ENDCHAR

STARTCHAR char82
ENCODING 82
SWIDTH 9 0
DWIDTH 12 0
BBX 11 13 0 0
BITMAP
FF00
3380
31C0
30C0
30C0
31C0
3F00
3700
3380
3380
3180
30C0
F8E0
ENDCHAR

STARTCHAR char83
ENCODING 83
SWIDTH 4 0
DWIDTH 11 0
BBX 9 13 1 0
BITMAP
3D00
4300
C100
C100
E000
FC00
7F00
1F00
0780
8180
8180
C300
BE00
ENDCHAR

STARTCHAR char84
ENCODING 84
SWIDTH 4 0
DWIDTH 11 0
BBX 11 13 0 0
BITMAP
FFE0
CCE0
8C60
8C60
0C00
0C00
0C00
0C00
0C00
0C00
0C00
0C00
3F00
ENDCHAR

STARTCHAR char85
ENCODING 85
SWIDTH 14 0
DWIDTH 13 0
BBX 12 13 0 0
BITMAP
F870
7060
3060
3060
3060
3060
3060
3060
3060
3060
3060
38C0
1F00
ENDCHAR

STARTCHAR char86
ENCODING 86
SWIDTH 9 0
DWIDTH 12 0
BBX 10 13 0 0
BITMAP
F9C0
7080
7080
3080
3880
3900
1900
1F00
1E00
0C00
0C00
0400
0400
ENDCHAR

STARTCHAR char87
ENCODING 87
SWIDTH 34 0
DWIDTH 17 0
BBX 16 13 -1 0
BITMAP
FBF3
71E1
70E1
38E2
38F2
3CF2
1CB4
1D34
0F38
0E38
0E18
0410
0410
ENDCHAR

STARTCHAR char88
ENCODING 88
SWIDTH 4 0
DWIDTH 11 0
BBX 11 13 -1 0
BITMAP
FDE0
7880
3880
3D00
1F00
0E00
0E00
0700
0B00
1380
2180
21C0
F3E0
ENDCHAR

STARTCHAR char89
ENCODING 89
SWIDTH 9 0
DWIDTH 12 0
BBX 10 13 0 0
BITMAP
F8C0
F040
7080
7080
3900
3900
1F00
1C00
0C00
0C00
0C00
0C00
3F00
ENDCHAR

STARTCHAR char90
ENCODING 90
SWIDTH 9 0
DWIDTH 12 0
BBX 11 13 0 0
BITMAP
7FC0
6380
4380
4700
0F00
0E00
1E00
1C00
3800
7820
7020
F060
FFC0
ENDCHAR

STARTCHAR char91
ENCODING 91
SWIDTH 25 0
DWIDTH 5 0
BBX 3 15 1 -2
BITMAP
E0
C0
C0
C0
C0
C0
C0
C0
C0
C0
C0
C0
C0
C0
C0
ENDCHAR

STARTCHAR char92
ENCODING 92
SWIDTH 25 0
DWIDTH 5 0
BBX 5 13 0 0
BITMAP
80
80
40
40
40
60
20
20
30
10
10
18
08
ENDCHAR

STARTCHAR char93
ENCODING 93
SWIDTH 25 0
DWIDTH 5 0
BBX 3 15 1 -2
BITMAP
E0
60
60
60
60
60
60
60
60
60
60
60
60
60
E0
ENDCHAR

STARTCHAR char94
ENCODING 94
SWIDTH 0 0
DWIDTH 0 0
BBX 6 3 -3 13
BITMAP
78
78
84
ENDCHAR

STARTCHAR char95
ENCODING 95
SWIDTH 4 0
DWIDTH 11 0
BBX 10 1 0 -2
BITMAP
FFC0
ENDCHAR

STARTCHAR char96
ENCODING 96
SWIDTH 0 0
DWIDTH 0 0
BBX 4 3 -3 9
BITMAP
60
20
10
ENDCHAR

STARTCHAR char97
ENCODING 97
SWIDTH 40 0
DWIDTH 8 0
BBX 8 8 0 0
BITMAP
3C
C6
C6
1E
66
C6
EE
F6
ENDCHAR

STARTCHAR char98
ENCODING 98
SWIDTH 45 0
DWIDTH 9 0
BBX 8 13 0 0
BITMAP
E0
60
60
60
60
7E
63
63
63
63
67
66
5C
ENDCHAR

STARTCHAR char99
ENCODING 99
SWIDTH 40 0
DWIDTH 8 0
BBX 7 8 0 0
BITMAP
7C
66
C2
C0
E0
E2
72
3C
ENDCHAR

STARTCHAR char100
ENCODING 100
SWIDTH 45 0
DWIDTH 9 0
BBX 7 13 1 0
BITMAP
1C
0C
0C
0C
0C
7C
CC
CC
CC
CC
CC
4C
7C
ENDCHAR

STARTCHAR char101
ENCODING 101
SWIDTH 40 0
DWIDTH 8 0
BBX 8 8 0 0
BITMAP
7C
C6
C6
FE
E0
E1
72
3C
ENDCHAR

STARTCHAR char102
ENCODING 102
SWIDTH 25 0
DWIDTH 5 0
BBX 6 13 0 0
BITMAP
38
6C
6C
60
60
F0
60
60
60
60
60
60
F0
ENDCHAR

STARTCHAR char103
ENCODING 103
SWIDTH 40 0
DWIDTH 8 0
BBX 8 11 0 -3
BITMAP
7F
C6
C6
C6
7C
40
FE
7F
C2
82
7C
ENDCHAR

STARTCHAR char104
ENCODING 104
SWIDTH 50 0
DWIDTH 10 0
BBX 9 13 0 0
BITMAP
E000
6000
6000
6000
6200
7F00
6300
6300
6300
6300
6300
6300
F780
ENDCHAR

STARTCHAR char105
ENCODING 105
SWIDTH 25 0
DWIDTH 5 0
BBX 4 13 0 0
BITMAP
60
60
60
00
E0
60
60
60
60
60
60
60
F0
ENDCHAR

STARTCHAR char106
ENCODING 106
SWIDTH 25 0
DWIDTH 5 0
BBX 5 16 -2 -3
BITMAP
18
18
18
00
38
18
18
18
18
18
18
18
18
58
D8
70
ENDCHAR

STARTCHAR char107
ENCODING 107
SWIDTH 45 0
DWIDTH 9 0
BBX 9 13 0 0
BITMAP
E000
6000
6000
6000
6900
6600
6400
6800
7C00
6C00
6E00
6700
FF80
ENDCHAR

STARTCHAR char108
ENCODING 108
SWIDTH 25 0
DWIDTH 5 0
BBX 4 13 0 0
BITMAP
E0
60
60
60
60
60
60
60
60
60
60
60
F0
ENDCHAR

STARTCHAR char109
ENCODING 109
SWIDTH 19 0
DWIDTH 14 0
BBX 13 8 0 0
BITMAP
FEE0
6730
6630
6630
6630
6630
6630
FF78
ENDCHAR

STARTCHAR char110
ENCODING 110
SWIDTH 50 0
DWIDTH 10 0
BBX 9 8 0 0
BITMAP
EF00
7300
6300
6300
6300
6300
6300
F780
ENDCHAR

STARTCHAR char111
ENCODING 111
SWIDTH 45 0
DWIDTH 9 0
BBX 6 8 1 0
BITMAP
78
4C
CC
CC
CC
CC
48
30
ENDCHAR

STARTCHAR char112
ENCODING 112
SWIDTH 45 0
DWIDTH 9 0
BBX 8 12 0 -3
BITMAP
20
FE
67
63
63
67
67
76
6E
60
60
F8
ENDCHAR

STARTCHAR char113
ENCODING 113
SWIDTH 45 0
DWIDTH 9 0
BBX 8 12 1 -3
BITMAP
04
7C
CC
CC
CC
CC
CC
CC
7C
0C
0C
1F
ENDCHAR

STARTCHAR char114
ENCODING 114
SWIDTH 35 0
DWIDTH 7 0
BBX 6 9 0 0
BITMAP
04
EC
74
60
60
60
60
60
F8
ENDCHAR

STARTCHAR char115
ENCODING 115
SWIDTH 35 0
DWIDTH 7 0
BBX 6 8 0 0
BITMAP
7C
E4
F0
78
3C
9C
CC
F8
ENDCHAR

STARTCHAR char116
ENCODING 116
SWIDTH 25 0
DWIDTH 5 0
BBX 6 12 0 0
BITMAP
20
20
20
60
F8
60
60
60
60
60
6C
70
ENDCHAR

STARTCHAR char117
ENCODING 117
SWIDTH 50 0
DWIDTH 10 0
BBX 8 8 0 0
BITMAP
66
66
66
66
66
66
6E
37
ENDCHAR

STARTCHAR char118
ENCODING 118
SWIDTH 40 0
DWIDTH 8 0
BBX 7 9 0 0
BITMAP
02
76
64
34
34
38
10
10
10
ENDCHAR

STARTCHAR char119
ENCODING 119
SWIDTH 9 0
DWIDTH 12 0
BBX 12 8 -1 0
BITMAP
7710
7390
73A0
3DA0
3DC0
19C0
1880
1880
ENDCHAR

STARTCHAR char120
ENCODING 120
SWIDTH 45 0
DWIDTH 9 0
BBX 8 9 0 0
BITMAP
04
FE
74
38
38
18
4C
EC
EF
ENDCHAR

STARTCHAR char121
ENCODING 121
SWIDTH 40 0
DWIDTH 8 0
BBX 7 11 0 -3
BITMAP
F4
74
74
34
38
18
18
10
D0
F0
E0
ENDCHAR

STARTCHAR char122
ENCODING 122
SWIDTH 35 0
DWIDTH 7 0
BBX 8 8 -1 0
BITMAP
FF
CE
0C
1C
18
39
71
7E
ENDCHAR

STARTCHAR char123
ENCODING 123
SWIDTH 30 0
DWIDTH 6 0
BBX 4 16 1 -3
BITMAP
30
60
60
60
60
60
60
40
80
40
40
60
60
60
60
30
ENDCHAR

STARTCHAR char124
ENCODING 124
SWIDTH 25 0
DWIDTH 5 0
BBX 2 13 1 0
BITMAP
C0
C0
C0
C0
C0
C0
C0
C0
C0
C0
C0
C0
C0
ENDCHAR

STARTCHAR char125
ENCODING 125
SWIDTH 30 0
DWIDTH 6 0
BBX 4 16 1 -3
BITMAP
C0
40
40
40
40
20
20
20
10
20
20
20
20
20
40
80
ENDCHAR

STARTCHAR char126
ENCODING 126
SWIDTH 0 0
DWIDTH 0 0
BBX 6 2 -3 14
BITMAP
74
FC
ENDCHAR

STARTCHAR char128
ENCODING 128
SWIDTH 45 0
DWIDTH 9 0
BBX 9 12 0 0
BITMAP
0F00
1980
3180
7000
6000
FE00
FE00
6000
6000
3080
3180
1E00
ENDCHAR

STARTCHAR char130
ENCODING 130
SWIDTH 20 0
DWIDTH 4 0
BBX 2 6 1 -3
BITMAP
C0
C0
C0
40
40
40
ENDCHAR

STARTCHAR char131
ENCODING 131
SWIDTH 0 0
DWIDTH 0 0
BBX 6 3 -3 13
BITMAP
78
78
84
ENDCHAR

STARTCHAR char132
ENCODING 132
SWIDTH 45 0
DWIDTH 9 0
BBX 6 6 1 -3
BITMAP
CC
CC
CC
44
44
88
ENDCHAR

STARTCHAR char133
ENCODING 133
SWIDTH 44 0
DWIDTH 19 0
BBX 14 2 2 0
BITMAP
C30C
C30C
ENDCHAR

STARTCHAR char134
ENCODING 134
SWIDTH 40 0
DWIDTH 8 0
BBX 8 16 0 -3
BITMAP
18
18
18
FE
EE
08
18
18
18
18
18
18
18
18
18
18
ENDCHAR

STARTCHAR char135
ENCODING 135
SWIDTH 39 0
DWIDTH 18 0
BBX 0 0 0 0
BITMAP
ENDCHAR

STARTCHAR char136
ENCODING 136
SWIDTH 0 0
DWIDTH 0 0
BBX 6 3 -3 9
BITMAP
30
78
84
ENDCHAR

STARTCHAR char137
ENCODING 137
SWIDTH 39 0
DWIDTH 18 0
BBX 0 0 0 0
BITMAP
ENDCHAR

STARTCHAR char138
ENCODING 138
SWIDTH 39 0
DWIDTH 18 0
BBX 0 0 0 0
BITMAP
ENDCHAR

STARTCHAR char139
ENCODING 139
SWIDTH 30 0
DWIDTH 6 0
BBX 2 6 2 2
BITMAP
40
40
80
80
C0
40
ENDCHAR

STARTCHAR char140
ENCODING 140
SWIDTH 39 0
DWIDTH 18 0
BBX 15 13 1 0
BITMAP
1FFE
33C6
61C6
41C6
C0D8
C0D8
C0F8
C0D8
C0D8
40DA
61C2
23C6
1FFE
ENDCHAR

STARTCHAR char141
ENCODING 141
SWIDTH 39 0
DWIDTH 18 0
BBX 0 0 0 0
BITMAP
ENDCHAR

STARTCHAR char143
ENCODING 143
SWIDTH 39 0
DWIDTH 18 0
BBX 0 0 0 0
BITMAP
ENDCHAR

STARTCHAR char145
ENCODING 145
SWIDTH 25 0
DWIDTH 5 0
BBX 4 6 0 7
BITMAP
30
60
C0
E0
F0
60
ENDCHAR

STARTCHAR char146
ENCODING 146
SWIDTH 25 0
DWIDTH 5 0
BBX 2 6 1 7
BITMAP
C0
C0
C0
40
C0
80
ENDCHAR

STARTCHAR char147
ENCODING 147
SWIDTH 45 0
DWIDTH 9 0
BBX 6 6 1 7
BITMAP
44
88
88
CC
CC
CC
ENDCHAR

STARTCHAR char148
ENCODING 148
SWIDTH 45 0
DWIDTH 9 0
BBX 6 6 1 7
BITMAP
CC
CC
CC
44
4C
88
ENDCHAR

STARTCHAR char149
ENCODING 149
SWIDTH 30 0
DWIDTH 6 0
BBX 5 5 0 3
BITMAP
70
F8
F8
F8
70
ENDCHAR

STARTCHAR char150
ENCODING 150
SWIDTH 45 0
DWIDTH 9 0
BBX 8 2 0 4
BITMAP
FF
FF
ENDCHAR

STARTCHAR char151
ENCODING 151
SWIDTH 9 0
DWIDTH 12 0
BBX 12 1 0 5
BITMAP
FFF0
ENDCHAR

STARTCHAR char152
ENCODING 152
SWIDTH 0 0
DWIDTH 0 0
BBX 6 2 -3 10
BITMAP
74
FC
ENDCHAR

STARTCHAR char153
ENCODING 153
SWIDTH 29 0
DWIDTH 16 0
BBX 14 7 1 5
BITMAP
FE1C
DA18
4318
4328
42B8
42D8
665C
ENDCHAR

STARTCHAR char154
ENCODING 154
SWIDTH 39 0
DWIDTH 18 0
BBX 0 0 0 0
BITMAP
ENDCHAR

STARTCHAR char155
ENCODING 155
SWIDTH 30 0
DWIDTH 6 0
BBX 2 6 2 2
BITMAP
80
80
40
40
C0
80
ENDCHAR

STARTCHAR char156
ENCODING 156
SWIDTH 14 0
DWIDTH 13 0
BBX 12 9 0 0
BITMAP
1000
7FE0
4720
C630
C7F0
C600
C720
6720
3DC0
ENDCHAR

STARTCHAR char157
ENCODING 157
SWIDTH 39 0
DWIDTH 18 0
BBX 0 0 0 0
BITMAP
ENDCHAR

STARTCHAR char159
ENCODING 159
SWIDTH 9 0
DWIDTH 12 0
BBX 10 16 0 0
BITMAP
3300
7380
3200
F8C0
F040
7080
7080
3900
3900
1F00
1C00
0C00
0C00
0C00
0C00
3F00
ENDCHAR

STARTCHAR char160
ENCODING 160
SWIDTH 25 0
DWIDTH 5 0
BBX 0 0 0 0
BITMAP
ENDCHAR

STARTCHAR char161
ENCODING 161
SWIDTH 25 0
DWIDTH 5 0
BBX 2 13 1 0
BITMAP
80
C0
C0
00
40
40
40
40
40
C0
C0
C0
C0
ENDCHAR

STARTCHAR char162
ENCODING 162
SWIDTH 40 0
DWIDTH 8 0
BBX 7 13 0 -2
BITMAP
08
08
18
6E
6E
CA
C8
E8
F2
72
3C
08
08
ENDCHAR

STARTCHAR char163
ENCODING 163
SWIDTH 50 0
DWIDTH 10 0
BBX 10 13 -1 0
BITMAP
0700
0980
1980
1880
1C00
1C00
3F00
0C00
0C00
0400
7C40
CF80
F780
ENDCHAR

STARTCHAR char164
ENCODING 164
SWIDTH 0 0
DWIDTH 0 0
BBX 4 2 -1 14
BITMAP
70
C0
ENDCHAR

STARTCHAR char165
ENCODING 165
SWIDTH 0 0
DWIDTH 0 0
BBX 6 3 -3 13
BITMAP
84
78
78
ENDCHAR

STARTCHAR char166
ENCODING 166
SWIDTH 39 0
DWIDTH 18 0
BBX 0 0 0 0
BITMAP
ENDCHAR

STARTCHAR char167
ENCODING 167
SWIDTH 45 0
DWIDTH 9 0
BBX 7 16 0 -3
BITMAP
1C
26
66
60
38
3C
4E
C6
62
72
3A
1C
0E
66
66
3C
ENDCHAR

STARTCHAR char168
ENCODING 168
SWIDTH 0 0
DWIDTH 0 0
BBX 6 3 -3 9
BITMAP
CC
CC
CC
ENDCHAR

STARTCHAR char169
ENCODING 169
SWIDTH 19 0
DWIDTH 14 0
BBX 13 12 0 0
BITMAP
0780
1840
2020
4790
4858
D818
D818
D818
48D0
6710
3060
0F80
ENDCHAR

STARTCHAR char170
ENCODING 170
SWIDTH 0 0
DWIDTH 0 0
BBX 6 3 -3 13
BITMAP
CC
CC
CC
ENDCHAR

STARTCHAR char171
ENCODING 171
SWIDTH 45 0
DWIDTH 9 0
BBX 8 8 0 1
BITMAP
11
32
26
6C
64
26
12
11
ENDCHAR

STARTCHAR char172
ENCODING 172
SWIDTH 14 0
DWIDTH 13 0
BBX 12 5 0 0
BITMAP
FFF0
0030
0030
0030
0030
ENDCHAR

STARTCHAR char173
ENCODING 173
SWIDTH 39 0
DWIDTH 18 0
BBX 0 0 0 0
BITMAP
ENDCHAR

STARTCHAR char174
ENCODING 174
SWIDTH 19 0
DWIDTH 14 0
BBX 13 12 0 0
BITMAP
0780
1840
2F20
4CD0
4CD8
C9D8
CF18
CD18
4D90
4ED0
3060
0F80
ENDCHAR

STARTCHAR char175
ENCODING 175
SWIDTH 39 0
DWIDTH 18 0
BBX 0 0 0 0
BITMAP
ENDCHAR

STARTCHAR char176
ENCODING 176
SWIDTH 25 0
DWIDTH 5 0
BBX 6 6 -1 6
BITMAP
38
44
CC
CC
48
30
ENDCHAR

STARTCHAR char177
ENCODING 177
SWIDTH 50 0
DWIDTH 10 0
BBX 9 11 0 0
BITMAP
0C00
0C00
0C00
0C00
FF80
0C00
0C00
0C00
0C00
0000
FF80
ENDCHAR

STARTCHAR char178
ENCODING 178
SWIDTH 39 0
DWIDTH 18 0
BBX 0 0 0 0
BITMAP
ENDCHAR

STARTCHAR char179
ENCODING 179
SWIDTH 39 0
DWIDTH 18 0
BBX 0 0 0 0
BITMAP
ENDCHAR

STARTCHAR char180
ENCODING 180
SWIDTH 0 0
DWIDTH 0 0
BBX 4 3 -1 9
BITMAP
60
C0
80
ENDCHAR

STARTCHAR char181
ENCODING 181
SWIDTH 39 0
DWIDTH 18 0
BBX 0 0 0 0
BITMAP
ENDCHAR

STARTCHAR char182
ENCODING 182
SWIDTH 14 0
DWIDTH 13 0
BBX 8 15 2 -3
BITMAP
7F
F6
F6
F6
F6
76
36
36
36
36
36
36
36
36
36
ENDCHAR

STARTCHAR char183
ENCODING 183
SWIDTH 15 0
DWIDTH 3 0
BBX 2 2 1 4
BITMAP
C0
C0
ENDCHAR

STARTCHAR char184
ENCODING 184
SWIDTH 0 0
DWIDTH 0 0
BBX 4 4 -2 -4
BITMAP
20
70
30
E0
ENDCHAR

STARTCHAR char186
ENCODING 186
SWIDTH 0 0
DWIDTH 0 0
BBX 6 2 -3 14
BITMAP
74
FC
ENDCHAR

STARTCHAR char187
ENCODING 187
SWIDTH 45 0
DWIDTH 9 0
BBX 8 8 0 1
BITMAP
48
44
66
36
36
66
44
48
ENDCHAR

STARTCHAR char188
ENCODING 188
SWIDTH 39 0
DWIDTH 18 0
BBX 0 0 0 0
BITMAP
ENDCHAR

STARTCHAR char189
ENCODING 189
SWIDTH 39 0
DWIDTH 18 0
BBX 0 0 0 0
BITMAP
ENDCHAR

STARTCHAR char191
ENCODING 191
SWIDTH 45 0
DWIDTH 9 0
BBX 6 13 1 0
BITMAP
10
30
10
00
30
10
20
60
C0
C8
CC
4C
78
ENDCHAR

STARTCHAR char192
ENCODING 192
SWIDTH 9 0
DWIDTH 12 0
BBX 11 16 0 0
BITMAP
3E00
0600
0000
0400
0400
0C00
0E00
1E00
1700
3700
2380
3F80
4380
41C0
41C0
E3E0
ENDCHAR

STARTCHAR char193
ENCODING 193
SWIDTH 9 0
DWIDTH 12 0
BBX 11 16 0 0
BITMAP
0700
0C00
0000
0400
0400
0C00
0E00
1E00
1700
3700
2380
3F80
4380
41C0
41C0
E3E0
ENDCHAR

STARTCHAR char194
ENCODING 194
SWIDTH 9 0
DWIDTH 12 0
BBX 11 16 0 0
BITMAP
1E00
1F00
2100
0400
0400
0C00
0E00
1E00
1700
3700
2380
3F80
4380
41C0
41C0
E3E0
ENDCHAR

STARTCHAR char195
ENCODING 195
SWIDTH 9 0
DWIDTH 12 0
BBX 11 16 0 0
BITMAP
1D80
3F00
0000
0400
0400
0C00
0E00
1E00
1700
3700
2380
3F80
4380
41C0
41C0
E3E0
ENDCHAR

STARTCHAR char196
ENCODING 196
SWIDTH 9 0
DWIDTH 12 0
BBX 11 16 0 0
BITMAP
3180
3180
3180
0400
0400
0C00
0E00
1E00
1700
1700
2700
3F80
4380
4180
40C0
E3E0
ENDCHAR

STARTCHAR char197
ENCODING 197
SWIDTH 9 0
DWIDTH 12 0
BBX 11 17 0 0
BITMAP
0E00
1B00
1B00
0E00
0400
0400
0C00
0E00
1E00
1700
1700
2700
3F80
2380
2380
41C0
E3E0
ENDCHAR

STARTCHAR char198
ENCODING 198
SWIDTH 34 0
DWIDTH 17 0
BBX 16 13 0 0
BITMAP
03FE
03C6
05C2
04C2
08D8
08C8
1FF8
11D8
21D8
21D9
21C1
41C2
E7FE
ENDCHAR

STARTCHAR char199
ENCODING 199
SWIDTH 9 0
DWIDTH 12 0
BBX 10 17 1 -4
BITMAP
1F40
31C0
6040
4040
C000
C000
C000
C000
C000
E000
6040
3080
3F00
0800
1C00
0C00
3800
ENDCHAR

STARTCHAR char200
ENCODING 200
SWIDTH 9 0
DWIDTH 12 0
BBX 10 16 0 0
BITMAP
0C00
0600
0000
FF80
7180
3080
3080
3200
3200
3E00
3200
3100
3140
3040
30C0
FFC0
ENDCHAR

STARTCHAR char201
ENCODING 201
SWIDTH 9 0
DWIDTH 12 0
BBX 10 16 0 0
BITMAP
0600
0400
0000
FF80
7180
3080
3080
3200
3200
3E00
3200
3100
3140
3040
30C0
FFC0
ENDCHAR

STARTCHAR char202
ENCODING 202
SWIDTH 9 0
DWIDTH 12 0
BBX 10 16 0 0
BITMAP
1E00
1E00
2100
FF80
7180
3080
3080
3200
3200
3E00
3200
3100
3140
3040
30C0
FFC0
ENDCHAR

STARTCHAR char203
ENCODING 203
SWIDTH 9 0
DWIDTH 12 0
BBX 10 16 0 0
BITMAP
3300
3300
3300
FF80
7180
3080
3080
3200
3200
3E00
3200
3200
3240
3040
30C0
FFC0
ENDCHAR

STARTCHAR char204
ENCODING 204
SWIDTH 35 0
DWIDTH 7 0
BBX 6 16 -1 0
BITMAP
70
10
00
FC
30
30
30
30
30
30
30
30
30
30
30
FC
ENDCHAR

STARTCHAR char205
ENCODING 205
SWIDTH 35 0
DWIDTH 7 0
BBX 6 16 0 0
BITMAP
1C
30
00
FC
30
30
30
30
30
30
30
30
30
30
30
FC
ENDCHAR

STARTCHAR char206
ENCODING 206
SWIDTH 35 0
DWIDTH 7 0
BBX 6 16 0 0
BITMAP
78
D8
84
FC
30
30
30
30
30
30
30
30
30
30
30
FC
ENDCHAR

STARTCHAR char207
ENCODING 207
SWIDTH 35 0
DWIDTH 7 0
BBX 7 16 -1 0
BITMAP
62
E6
42
7E
18
18
18
18
18
18
18
18
18
18
18
7E
ENDCHAR

STARTCHAR char208
ENCODING 208
SWIDTH 39 0
DWIDTH 18 0
BBX 0 0 0 0
BITMAP
ENDCHAR

STARTCHAR char209
ENCODING 209
SWIDTH 14 0
DWIDTH 13 0
BBX 12 16 0 0
BITMAP
0C80
1F80
0F00
F070
7820
7830
7C20
6E20
6F20
67A0
63A0
61E0
60E0
60E0
6060
F020
ENDCHAR

STARTCHAR char210
ENCODING 210
SWIDTH 24 0
DWIDTH 15 0
BBX 11 16 1 0
BITMAP
1E00
0600
0000
0F00
3180
60C0
6040
C060
C060
C060
C060
C060
6040
60C0
3180
1F00
ENDCHAR

STARTCHAR char211
ENCODING 211
SWIDTH 24 0
DWIDTH 15 0
BBX 11 16 1 0
BITMAP
0700
0400
0000
0F00
3180
60C0
6040
C060
C060
C060
C060
C060
6040
60C0
3180
1F00
ENDCHAR

STARTCHAR char212
ENCODING 212
SWIDTH 24 0
DWIDTH 15 0
BBX 11 16 1 0
BITMAP
0E00
1B00
1180
0F00
3180
60C0
6040
C060
C060
C060
C060
C060
6040
60C0
3180
1F00
ENDCHAR

STARTCHAR char213
ENCODING 213
SWIDTH 24 0
DWIDTH 15 0
BBX 11 16 1 0
BITMAP
0C80
1F00
0600
0F00
3180
60C0
6040
C060
C060
C060
C060
C060
6040
60C0
3180
1F00
ENDCHAR

STARTCHAR char214
ENCODING 214
SWIDTH 24 0
DWIDTH 15 0
BBX 13 16 0 0
BITMAP
18C0
18C0
18C0
0F80
18E0
3070
6030
6038
E038
E038
E038
E038
6030
6070
3060
0F80
ENDCHAR

STARTCHAR char215
ENCODING 215
SWIDTH 39 0
DWIDTH 18 0
BBX 0 0 0 0
BITMAP
ENDCHAR

STARTCHAR char216
ENCODING 216
SWIDTH 24 0
DWIDTH 15 0
BBX 11 13 1 0
BITMAP
0F20
31C0
60C0
60C0
C160
C260
C460
C860
D060
E040
60C0
7080
9F00
ENDCHAR

STARTCHAR char217
ENCODING 217
SWIDTH 14 0
DWIDTH 13 0
BBX 12 16 0 0
BITMAP
0E00
0200
0000
F870
7060
3060
3060
3060
3060
3060
3060
3060
3060
3060
38C0
1F00
ENDCHAR

STARTCHAR char218
ENCODING 218
SWIDTH 14 0
DWIDTH 13 0
BBX 12 16 0 0
BITMAP
0780
0600
0000
F870
7060
3060
3060
3060
3060
3060
3060
3060
3060
3060
38C0
1F00
ENDCHAR

STARTCHAR char219
ENCODING 219
SWIDTH 14 0
DWIDTH 13 0
BBX 12 16 0 0
BITMAP
0F00
0F00
0880
F870
7060
3060
3060
3060
3060
3060
3060
3060
3060
3060
38C0
1F00
ENDCHAR

STARTCHAR char220
ENCODING 220
SWIDTH 14 0
DWIDTH 13 0
BBX 12 16 0 0
BITMAP
08C0
0CC0
08C0
F870
7020
3020
7020
7020
7020
7020
7020
7020
7020
3020
1840
0F80
ENDCHAR

STARTCHAR char221
ENCODING 221
SWIDTH 39 0
DWIDTH 18 0
BBX 0 0 0 0
BITMAP
ENDCHAR

STARTCHAR char222
ENCODING 222
SWIDTH 39 0
DWIDTH 18 0
BBX 0 0 0 0
BITMAP
ENDCHAR

STARTCHAR char223
ENCODING 223
SWIDTH 45 0
DWIDTH 9 0
BBX 8 13 0 0
BITMAP
3C
66
66
66
66
6C
66
63
63
63
63
62
FE
ENDCHAR

STARTCHAR char224
ENCODING 224
SWIDTH 40 0
DWIDTH 8 0
BBX 8 12 0 0
BITMAP
70
30
18
00
3C
C6
C6
1E
66
C6
EE
F6
ENDCHAR

STARTCHAR char225
ENCODING 225
SWIDTH 40 0
DWIDTH 8 0
BBX 8 12 0 0
BITMAP
1C
18
10
00
3C
C6
C6
1E
66
C6
EE
F6
ENDCHAR

STARTCHAR char226
ENCODING 226
SWIDTH 40 0
DWIDTH 8 0
BBX 8 12 0 0
BITMAP
38
6C
42
00
3C
C6
C6
1E
66
C6
EE
F6
ENDCHAR

STARTCHAR char227
ENCODING 227
SWIDTH 40 0
DWIDTH 8 0
BBX 8 12 0 0
BITMAP
7A
7E
00
00
3C
C6
C6
1E
66
C6
FE
E6
ENDCHAR

STARTCHAR char228
ENCODING 228
SWIDTH 40 0
DWIDTH 8 0
BBX 8 12 0 0
BITMAP
46
E6
66
00
3C
CE
CE
1E
6E
CE
FF
F6
ENDCHAR

STARTCHAR char229
ENCODING 229
SWIDTH 40 0
DWIDTH 8 0
BBX 8 13 0 0
BITMAP
18
24
24
38
00
3E
C6
C6
1E
66
C6
FF
76
ENDCHAR

STARTCHAR char230
ENCODING 230
SWIDTH 9 0
DWIDTH 12 0
BBX 11 9 0 0
BITMAP
1000
6FC0
CC40
4C60
3FE0
6C00
CE20
FE40
6780
ENDCHAR

STARTCHAR char231
ENCODING 231
SWIDTH 40 0
DWIDTH 8 0
BBX 7 12 0 -4
BITMAP
7C
6E
C4
C0
E0
E2
7E
3C
10
38
18
70
ENDCHAR

STARTCHAR char232
ENCODING 232
SWIDTH 40 0
DWIDTH 8 0
BBX 8 12 0 0
BITMAP
70
30
10
00
7C
C6
C6
FE
E0
E1
72
3C
ENDCHAR

STARTCHAR char233
ENCODING 233
SWIDTH 40 0
DWIDTH 8 0
BBX 8 12 0 0
BITMAP
1C
18
10
00
7C
C6
C6
FE
E0
E1
72
3C
ENDCHAR

STARTCHAR char234
ENCODING 234
SWIDTH 40 0
DWIDTH 8 0
BBX 8 12 0 0
BITMAP
38
6C
44
00
7C
C6
C6
FE
E0
E1
72
3C
ENDCHAR

STARTCHAR char235
ENCODING 235
SWIDTH 40 0
DWIDTH 8 0
BBX 8 12 0 0
BITMAP
66
E6
66
00
3C
62
62
7E
60
61
32
1C
ENDCHAR

STARTCHAR char236
ENCODING 236
SWIDTH 25 0
DWIDTH 5 0
BBX 6 12 -1 0
BITMAP
60
20
20
00
30
30
30
30
30
30
30
7C
ENDCHAR

STARTCHAR char237
ENCODING 237
SWIDTH 25 0
DWIDTH 5 0
BBX 5 12 0 0
BITMAP
30
60
40
00
60
60
60
60
60
60
60
F0
ENDCHAR

STARTCHAR char238
ENCODING 238
SWIDTH 25 0
DWIDTH 5 0
BBX 6 12 -1 0
BITMAP
30
58
84
00
30
30
30
30
30
30
30
7C
ENDCHAR

STARTCHAR char239
ENCODING 239
SWIDTH 25 0
DWIDTH 5 0
BBX 6 12 -1 0
BITMAP
CC
CC
CC
00
30
30
30
30
30
30
30
7C
ENDCHAR

STARTCHAR char241
ENCODING 241
SWIDTH 50 0
DWIDTH 10 0
BBX 9 12 0 0
BITMAP
3E00
5C00
0000
0000
EF00
7300
6300
6300
6300
6300
6300
F780
ENDCHAR

STARTCHAR char242
ENCODING 242
SWIDTH 45 0
DWIDTH 9 0
BBX 6 12 1 0
BITMAP
60
20
10
00
78
4C
CC
CC
CC
CC
48
30
ENDCHAR

STARTCHAR char243
ENCODING 243
SWIDTH 45 0
DWIDTH 9 0
BBX 6 12 1 0
BITMAP
10
10
20
00
78
4C
CC
CC
CC
CC
48
30
ENDCHAR

STARTCHAR char244
ENCODING 244
SWIDTH 45 0
DWIDTH 9 0
BBX 6 12 1 0
BITMAP
30
50
48
00
78
4C
CC
CC
CC
CC
48
30
ENDCHAR

STARTCHAR char245
ENCODING 245
SWIDTH 45 0
DWIDTH 9 0
BBX 6 12 1 0
BITMAP
78
F8
00
00
78
4C
CC
CC
CC
CC
48
30
ENDCHAR

STARTCHAR char246
ENCODING 246
SWIDTH 45 0
DWIDTH 9 0
BBX 6 12 1 0
BITMAP
48
CC
68
00
78
CC
CC
CC
CC
CC
48
30
ENDCHAR

STARTCHAR char247
ENCODING 247
SWIDTH 50 0
DWIDTH 10 0
BBX 9 7 0 1
BITMAP
1800
1800
0000
FF80
0000
1800
1800
ENDCHAR

STARTCHAR char248
ENCODING 248
SWIDTH 45 0
DWIDTH 9 0
BBX 7 9 0 0
BITMAP
02
7E
46
CE
D6
E6
E6
64
F8
ENDCHAR

STARTCHAR char249
ENCODING 249
SWIDTH 50 0
DWIDTH 10 0
BBX 8 12 0 0
BITMAP
30
10
08
00
66
66
66
66
66
66
6E
37
ENDCHAR

STARTCHAR char250
ENCODING 250
SWIDTH 50 0
DWIDTH 10 0
BBX 8 12 0 0
BITMAP
08
08
10
00
66
66
66
66
66
66
6E
37
ENDCHAR

STARTCHAR char251
ENCODING 251
SWIDTH 50 0
DWIDTH 10 0
BBX 8 12 0 0
BITMAP
18
3C
24
00
66
66
66
66
66
66
6E
37
ENDCHAR

STARTCHAR char252
ENCODING 252
SWIDTH 50 0
DWIDTH 10 0
BBX 9 12 0 0
BITMAP
6400
6600
6400
9E00
EE00
6600
6600
6600
6600
6600
6E00
7780
ENDCHAR

STARTCHAR char255
ENCODING 255
SWIDTH 40 0
DWIDTH 8 0
BBX 8 15 0 -3
BITMAP
C6
C6
C6
00
F3
72
7A
3A
3C
18
18
10
90
F0
C0
ENDCHAR
ENDFONT
